<svg width="102" height="34" viewBox="0 0 102 34" fill="none" xmlns="http://www.w3.org/2000/svg">
<rect x="0.423387" y="0.423387" width="100.766" height="33.0242" rx="4.65726" fill="white"/>
<rect x="0.423387" y="0.423387" width="100.766" height="33.0242" rx="4.65726" stroke="#CECECE" stroke-width="0.846774"/>
<path d="M20.9191 17.5817C20.9294 16.8027 21.1413 16.039 21.5352 15.3615C21.929 14.684 22.492 14.1147 23.1718 13.7067C22.74 13.1046 22.1703 12.6091 21.508 12.2596C20.8457 11.91 20.1091 11.7161 19.3566 11.6931C17.7514 11.5286 16.1952 12.6308 15.3772 12.6308C14.5434 12.6308 13.284 11.7094 11.9278 11.7366C11.0506 11.7643 10.1956 12.0134 9.44632 12.4595C8.697 12.9057 8.07883 13.5337 7.65205 14.2824C5.80336 17.4074 7.18232 22 8.95324 24.5259C9.83928 25.7628 10.8748 27.1445 12.2298 27.0955C13.5557 27.0418 14.0509 26.27 15.6514 26.27C17.237 26.27 17.7016 27.0955 19.084 27.0643C20.5068 27.0418 21.4032 25.8219 22.2582 24.5733C22.8948 23.692 23.3847 22.718 23.7097 21.6872C22.8831 21.3459 22.1777 20.7746 21.6814 20.0445C21.1852 19.3144 20.9201 18.4579 20.9191 17.5817Z" fill="black"/>
<path d="M18.3079 10.0318C19.0836 9.12263 19.4658 7.95403 19.3733 6.77417C18.1881 6.8957 17.0933 7.44871 16.3071 8.32301C15.9227 8.75013 15.6283 9.24703 15.4407 9.7853C15.2531 10.3236 15.176 10.8927 15.2138 11.4601C15.8066 11.466 16.3931 11.3406 16.929 11.0932C17.465 10.8458 17.9364 10.4829 18.3079 10.0318Z" fill="black"/>
<path d="M31.1537 5.35608H32.9064C34.4209 5.35608 35.1577 6.25661 35.1577 7.8902C35.1577 9.5238 34.4134 10.4355 32.9064 10.4355H31.1537V5.35608ZM31.9984 6.06683V9.72474H32.8133C33.8181 9.72474 34.2906 9.11819 34.2906 7.90137C34.2906 6.6771 33.8143 6.06683 32.8133 6.06683H31.9984ZM37.8295 6.43522C38.8565 6.43522 39.5747 7.10131 39.5747 8.2065V8.7163C39.5747 9.8587 38.8565 10.5025 37.8295 10.5025C36.7876 10.5025 36.0768 9.86615 36.0768 8.72002V8.21022C36.0768 7.1348 36.7987 6.43522 37.8295 6.43522ZM37.8332 7.10131C37.2453 7.10131 36.9104 7.59251 36.9104 8.25116V8.69025C36.9104 9.3489 37.2229 9.83638 37.8332 9.83638C38.436 9.83638 38.7449 9.35262 38.7449 8.69025V8.25116C38.7449 7.59251 38.4212 7.10131 37.8332 7.10131ZM45.6402 6.5022L44.6057 10.4355H43.7648L42.9424 7.53297H42.9201L42.1126 10.4355H41.2679L40.1887 6.5022H41.0781L41.7107 9.50147H41.7479L42.5405 6.5022H43.3182L44.1332 9.50147H44.1704L44.8141 6.5022H45.6402ZM46.4589 10.4355V6.5022H47.2701V7.20923H47.311C47.4115 6.90037 47.698 6.44266 48.4944 6.44266C49.287 6.44266 49.8191 6.88176 49.8191 7.77857V10.4355H48.993V8.02044C48.993 7.42133 48.6804 7.14597 48.2153 7.14597C47.605 7.14597 47.285 7.61483 47.285 8.25116V10.4355H46.4589ZM51.0694 10.4355V5.08816H51.8955V10.4355H51.0694ZM54.7311 6.43522C55.7581 6.43522 56.4763 7.10131 56.4763 8.2065V8.7163C56.4763 9.8587 55.7581 10.5025 54.7311 10.5025C53.6891 10.5025 52.9784 9.86615 52.9784 8.72002V8.21022C52.9784 7.1348 53.7003 6.43522 54.7311 6.43522ZM54.7348 7.10131C54.1468 7.10131 53.8119 7.59251 53.8119 8.25116V8.69025C53.8119 9.3489 54.1245 9.83638 54.7348 9.83638C55.3376 9.83638 55.6465 9.35262 55.6465 8.69025V8.25116C55.6465 7.59251 55.3227 7.10131 54.7348 7.10131ZM58.616 10.495C57.8531 10.495 57.3284 10.0262 57.3284 9.29308C57.3284 8.59723 57.8122 8.12836 58.7202 8.12836H59.7137V7.75996C59.7137 7.3097 59.4272 7.09759 58.9732 7.09759C58.5267 7.09759 58.3257 7.28365 58.2625 7.54413H57.4773C57.5257 6.88548 58.0206 6.44266 58.9993 6.44266C59.8402 6.44266 60.5361 6.79245 60.5361 7.77112V10.4355H59.7509V9.92568H59.7137C59.5388 10.2271 59.1965 10.495 58.616 10.495ZM58.8727 9.85498C59.3416 9.85498 59.7137 9.53496 59.7137 9.10703V8.68281H58.8504C58.3704 8.68281 58.1583 8.92469 58.1583 9.25215C58.1583 9.66148 58.5006 9.85498 58.8727 9.85498ZM63.0814 6.45011C63.6358 6.45011 64.0601 6.6957 64.2126 7.09387H64.2536V5.08816H65.0797V10.4355H64.2759V9.80661H64.235C64.1159 10.2048 63.6433 10.4876 63.0702 10.4876C62.166 10.4876 61.578 9.84382 61.578 8.80561V8.13208C61.578 7.09387 62.1771 6.45011 63.0814 6.45011ZM63.3121 7.12736C62.7614 7.12736 62.419 7.53669 62.419 8.25116V8.68281C62.419 9.401 62.7651 9.81033 63.3307 9.81033C63.8889 9.81033 64.2536 9.40472 64.2536 8.73491V8.13952C64.2536 7.53297 63.8554 7.12736 63.3121 7.12736ZM69.6158 6.43522C70.6428 6.43522 71.361 7.10131 71.361 8.2065V8.7163C71.361 9.8587 70.6428 10.5025 69.6158 10.5025C68.5738 10.5025 67.8631 9.86615 67.8631 8.72002V8.21022C67.8631 7.1348 68.585 6.43522 69.6158 6.43522ZM69.6195 7.10131C69.0315 7.10131 68.6966 7.59251 68.6966 8.25116V8.69025C68.6966 9.3489 69.0092 9.83638 69.6195 9.83638C70.2223 9.83638 70.5312 9.35262 70.5312 8.69025V8.25116C70.5312 7.59251 70.2074 7.10131 69.6195 7.10131ZM72.4253 10.4355V6.5022H73.2365V7.20923H73.2774C73.3779 6.90037 73.6644 6.44266 74.4607 6.44266C75.2534 6.44266 75.7855 6.88176 75.7855 7.77857V10.4355H74.9594V8.02044C74.9594 7.42133 74.6468 7.14597 74.1817 7.14597C73.5714 7.14597 73.2514 7.61483 73.2514 8.25116V10.4355H72.4253ZM78.982 6.52825V5.54586H79.7895V6.52825H80.6714V7.17574H79.7895V9.26332C79.7895 9.69125 79.9495 9.81033 80.3923 9.81033C80.5039 9.81033 80.6528 9.80289 80.716 9.79544V10.428C80.6491 10.4392 80.3737 10.4615 80.1876 10.4615C79.2313 10.4615 78.9708 10.1192 78.9708 9.3303V7.17574H78.3717V6.52825H78.982ZM81.7133 10.4355V5.08816H82.5357V7.20923H82.5766C82.6622 6.93014 82.9822 6.44266 83.7711 6.44266C84.5377 6.44266 85.0847 6.88548 85.0847 7.78229V10.4355H84.2623V8.02416C84.2623 7.42505 83.9311 7.14597 83.4623 7.14597C82.8706 7.14597 82.5357 7.61111 82.5357 8.25116V10.4355H81.7133ZM87.857 10.5025C86.7853 10.5025 86.1192 9.84382 86.1192 8.73491V8.20278C86.1192 7.08643 86.8485 6.43522 87.8086 6.43522C88.7947 6.43522 89.4906 7.11992 89.4906 8.20278V8.66421H86.9378V8.85771C86.9378 9.42333 87.2727 9.8401 87.8533 9.8401C88.2849 9.8401 88.5826 9.63543 88.6384 9.38984H89.4459C89.3975 9.84382 88.9175 10.5025 87.857 10.5025ZM86.9378 8.12464H88.6831V8.07254C88.6831 7.48087 88.337 7.08643 87.8123 7.08643C87.2876 7.08643 86.9378 7.48087 86.9378 8.07254V8.12464Z" fill="black"/>
<path d="M32.3519 25.4355H30.6327L34.1306 15.2767H36.021L39.5115 25.4355H37.7253L36.8248 22.6223H33.2599L32.3519 25.4355ZM35.0833 17.0331H35.0163L33.6394 21.3273H36.4452L35.0833 17.0331ZM44.2561 25.5471C43.2365 25.5471 42.4625 25.0634 42.0458 24.3415H41.9862V28.0478H40.334V17.5689H41.9416V18.7225H42.0011C42.4328 17.9708 43.2365 17.4647 44.2934 17.4647C46.0572 17.4647 47.3149 18.7969 47.3149 21.1487V21.8483C47.3149 24.1852 46.0721 25.5471 44.2561 25.5471ZM43.8766 24.1852C44.926 24.1852 45.6404 23.3442 45.6404 21.759V21.2082C45.6404 19.6825 44.9706 18.8118 43.8468 18.8118C42.6932 18.8118 41.9713 19.7495 41.9713 21.2008V21.759C41.9713 23.2474 42.7007 24.1852 43.8766 24.1852ZM52.655 25.5471C51.6354 25.5471 50.8614 25.0634 50.4446 24.3415H50.3851V28.0478H48.7329V17.5689H50.3404V18.7225H50.4C50.8316 17.9708 51.6354 17.4647 52.6922 17.4647C54.4561 17.4647 55.7138 18.7969 55.7138 21.1487V21.8483C55.7138 24.1852 54.4709 25.5471 52.655 25.5471ZM52.2755 24.1852C53.3248 24.1852 54.0393 23.3442 54.0393 21.759V21.2082C54.0393 19.6825 53.3695 18.8118 52.2457 18.8118C51.0921 18.8118 50.3702 19.7495 50.3702 21.2008V21.759C50.3702 23.2474 51.0996 24.1852 52.2755 24.1852ZM59.1377 22.6148H60.7899C60.8643 23.493 61.6383 24.2447 63.0747 24.2447C64.392 24.2447 65.1734 23.627 65.1734 22.6669C65.1734 21.8929 64.6524 21.4762 63.5659 21.2157L61.8988 20.7989C60.5889 20.4938 59.413 19.7123 59.413 18.0601C59.413 16.1177 61.1099 15.0534 63.0821 15.0534C65.0543 15.0534 66.6991 16.1177 66.7363 18.0155H65.1139C65.0395 17.1521 64.3771 16.4377 63.0598 16.4377C61.8988 16.4377 61.1099 16.9884 61.1099 17.9336C61.1099 18.596 61.5713 19.0723 62.5165 19.2881L64.1761 19.6974C65.7018 20.0696 66.8628 20.7915 66.8628 22.5181C66.8628 24.5126 65.2478 25.6364 62.9482 25.6364C60.1201 25.6364 59.1749 23.9842 59.1377 22.6148ZM68.8762 17.5689V15.6562H70.4986V17.5689H72.0317V18.8937H70.4986V23.0911C70.4986 23.947 70.8186 24.1852 71.7043 24.1852C71.8457 24.1852 71.9796 24.1852 72.0764 24.1703V25.4355C71.9424 25.4578 71.6298 25.4876 71.2949 25.4876C69.3822 25.4876 68.8538 24.8029 68.8538 23.2251V18.8937H67.7673V17.5689H68.8762ZM76.4936 17.435C78.7561 17.435 79.9841 19.0276 79.9841 21.171V21.8036C79.9841 24.0214 78.7635 25.5694 76.4936 25.5694C74.2237 25.5694 72.9882 24.0214 72.9882 21.8036V21.171C72.9882 19.0351 74.2311 17.435 76.4936 17.435ZM76.4936 18.7597C75.2656 18.7597 74.6553 19.7644 74.6553 21.1933V21.7962C74.6553 23.2028 75.2582 24.2373 76.4936 24.2373C77.729 24.2373 78.3244 23.2102 78.3244 21.7962V21.1933C78.3244 19.757 77.7216 18.7597 76.4936 18.7597ZM81.3797 25.4355V17.5689H83.0319V18.6034H83.0914C83.2924 18.1122 83.8803 17.4573 84.9743 17.4573C85.1902 17.4573 85.3762 17.4722 85.5325 17.5019V18.9606C85.3911 18.9234 85.1009 18.9011 84.8255 18.9011C83.5007 18.9011 83.0542 19.7198 83.0542 20.7766V25.4355H81.3797ZM89.5404 25.5694C87.4342 25.5694 86.0946 24.1777 86.0946 21.8483V21.0519C86.0946 18.8564 87.4044 17.435 89.4734 17.435C91.5722 17.435 92.8374 18.9085 92.8374 21.1264V21.878H87.7245V22.0641C87.7245 23.3888 88.4389 24.267 89.5627 24.267C90.4037 24.267 90.9768 23.8503 91.1777 23.173H92.7481C92.5099 24.4457 91.4829 25.5694 89.5404 25.5694ZM87.7245 20.7245H91.2224V20.7096C91.2224 19.5932 90.5302 18.715 89.4809 18.715C88.4166 18.715 87.7245 19.5932 87.7245 20.7096V20.7245Z" fill="black"/>
</svg>
