<svg width="102" height="34" viewBox="0 0 102 34" fill="none" xmlns="http://www.w3.org/2000/svg">
<rect x="0.810472" y="0.423387" width="100.766" height="33.0242" rx="4.65726" fill="white"/>
<rect x="0.810472" y="0.423387" width="100.766" height="33.0242" rx="4.65726" stroke="#CECECE" stroke-width="0.846774"/>
<path d="M15.4638 16.4797L7.23718 25.4083C7.23796 25.4099 7.23796 25.4122 7.23873 25.4138C7.49139 26.3833 8.35678 27.0968 9.38443 27.0968C9.79549 27.0968 10.181 26.983 10.5117 26.7839L10.538 26.7681L19.7977 21.3043L15.4638 16.4797Z" fill="#EA4335"/>
<path d="M23.7861 14.9593L23.7784 14.9538L19.7806 12.5841L15.2767 16.6826L19.7968 21.3033L23.773 18.9574C24.4699 18.5718 24.9436 17.8204 24.9436 16.9544C24.9436 16.0932 24.4769 15.3457 23.7861 14.9593Z" fill="#FBBC04"/>
<path d="M7.23698 8.4621C7.18753 8.64857 7.16125 8.84453 7.16125 9.04681V24.8243C7.16125 25.0266 7.18753 25.2226 7.23775 25.4083L15.7464 16.708L7.23698 8.4621Z" fill="#4285F4"/>
<path d="M15.5245 16.9354L19.7819 12.5825L10.533 7.09896C10.1969 6.89273 9.80439 6.77421 9.38483 6.77421C8.35718 6.77421 7.49025 7.48929 7.23759 8.45958C7.23759 8.46037 7.23682 8.46116 7.23682 8.46195L15.5245 16.9354Z" fill="#34A853"/>
<path d="M37.3149 9.448C37.3149 10.2948 37.0637 10.9694 36.5613 11.4718C35.9968 12.0702 35.2544 12.3694 34.3343 12.3694C33.4536 12.3694 32.7085 12.0645 32.0988 11.4549C31.4891 10.8452 31.1843 10.0944 31.1843 9.20244C31.1843 8.3105 31.4891 7.55969 32.0988 6.95002C32.7085 6.34034 33.4536 6.0355 34.3343 6.0355C34.7802 6.0355 35.2008 6.11453 35.596 6.2726C35.9911 6.43066 36.3157 6.65364 36.5698 6.94155L36.0109 7.50042C35.8246 7.27461 35.5819 7.09961 35.2827 6.97542C34.9891 6.84558 34.673 6.78066 34.3343 6.78066C33.6738 6.78066 33.1149 7.00929 32.6577 7.46655C32.2061 7.92945 31.9802 8.50808 31.9802 9.20244C31.9802 9.89679 32.2061 10.4754 32.6577 10.9383C33.1149 11.3956 33.6738 11.6242 34.3343 11.6242C34.9383 11.6242 35.4407 11.4549 35.8415 11.1161C36.2423 10.7774 36.4738 10.3117 36.5359 9.71897H34.3343V8.99074H37.2726C37.3008 9.14881 37.3149 9.30123 37.3149 9.448ZM41.801 6.17098V6.91614H39.0405V8.83832H41.53V9.56655H39.0405V11.4887H41.801V12.2339H38.2615V6.17098H41.801ZM44.917 6.91614V12.2339H44.138V6.91614H42.4445V6.17098H46.6106V6.91614H44.917ZM50.0634 12.2339H49.2844V6.17098H50.0634V12.2339ZM53.3517 6.91614V12.2339H52.5727V6.91614H50.8791V6.17098H55.0453V6.91614H53.3517ZM63.4896 9.20244C63.4896 10.1 63.1904 10.8508 62.592 11.4549C61.988 12.0645 61.2484 12.3694 60.3734 12.3694C59.4928 12.3694 58.7533 12.0645 58.1549 11.4549C57.5565 10.8508 57.2573 10.1 57.2573 9.20244C57.2573 8.30485 57.5565 7.55405 58.1549 6.95002C58.7533 6.34034 59.4928 6.0355 60.3734 6.0355C61.2541 6.0355 61.9936 6.34316 62.592 6.95848C63.1904 7.56252 63.4896 8.3105 63.4896 9.20244ZM58.0533 9.20244C58.0533 9.90243 58.2734 10.4811 58.7138 10.9383C59.1597 11.3956 59.713 11.6242 60.3734 11.6242C61.0339 11.6242 61.5843 11.3956 62.0247 10.9383C62.4706 10.4867 62.6936 9.90808 62.6936 9.20244C62.6936 8.49679 62.4706 7.91816 62.0247 7.46655C61.5843 7.00929 61.0339 6.78066 60.3734 6.78066C59.713 6.78066 59.1597 7.00929 58.7138 7.46655C58.2734 7.92381 58.0533 8.50243 58.0533 9.20244ZM65.188 12.2339H64.4089V6.17098H65.3573L68.3041 10.8875H68.338L68.3041 9.71897V6.17098H69.0831V12.2339H68.2702L65.188 7.28872H65.1541L65.188 8.45727V12.2339Z" fill="black"/>
<path d="M79.5758 28.4356H80.9551V19.1114H79.5758V28.4356ZM91.9986 22.4701L90.4175 26.5127H90.3702L88.7293 22.4701H87.2437L89.7043 28.1201L88.3021 31.2633H89.7397L93.5323 22.4701H91.9986ZM84.177 27.3765C83.7246 27.3765 83.0949 27.149 83.0949 26.5843C83.0949 25.8653 83.8791 25.5893 84.5569 25.5893C85.163 25.5893 85.449 25.7214 85.8171 25.9011C85.7099 26.7648 84.973 27.3765 84.177 27.3765ZM84.3433 22.2664C83.3447 22.2664 82.3099 22.7102 81.8827 23.694L83.1067 24.2095C83.3684 23.694 83.8554 23.5255 84.3669 23.5255C85.0802 23.5255 85.8053 23.9573 85.8171 24.7256V24.8211C85.5673 24.6771 85.0329 24.4616 84.3788 24.4616C83.0594 24.4616 81.7156 25.1933 81.7156 26.5605C81.7156 27.8083 82.7977 28.6124 84.0099 28.6124C84.9375 28.6124 85.449 28.1925 85.7698 27.7002H85.8171V28.42H87.1483V24.8449C87.1483 23.1898 85.9243 22.2664 84.3433 22.2664ZM75.8195 23.6053H73.8578V20.4092H75.8195C76.8506 20.4092 77.436 21.2707 77.436 22.0069C77.436 22.7296 76.8506 23.6053 75.8195 23.6053ZM75.784 19.1114H72.4794V28.4356H73.8578V24.9031H75.784C77.3126 24.9031 78.8153 23.7858 78.8153 22.0069C78.8153 20.2279 77.3126 19.1114 75.784 19.1114ZM57.7631 27.378C56.8103 27.378 56.0128 26.5732 56.0128 25.4678C56.0128 24.3504 56.8103 23.5329 57.7631 23.5329C58.704 23.5329 59.4417 24.3504 59.4417 25.4678C59.4417 26.5732 58.704 27.378 57.7631 27.378ZM59.3471 22.9922H59.299C58.9893 22.62 58.3943 22.2836 57.6441 22.2836C56.0719 22.2836 54.6314 23.6769 54.6314 25.4678C54.6314 27.2459 56.0719 28.6281 57.6441 28.6281C58.3943 28.6281 58.9893 28.2917 59.299 27.9068H59.3471V28.364C59.3471 29.5776 58.704 30.2265 57.6677 30.2265C56.8222 30.2265 56.2981 29.6134 56.0838 29.0965L54.8812 29.6014C55.2264 30.4428 56.1436 31.4758 57.6677 31.4758C59.2872 31.4758 60.6568 30.5144 60.6568 28.1716V22.4753H59.3471V22.9922ZM61.6096 28.4356H62.991V19.1106H61.6096V28.4356ZM65.0266 25.3596C64.9911 24.1341 65.9675 23.5091 66.6697 23.5091C67.2182 23.5091 67.6823 23.785 67.8368 24.1819L65.0266 25.3596ZM69.3136 24.3019C69.052 23.5934 68.2537 22.2836 66.6224 22.2836C65.003 22.2836 63.6577 23.5687 63.6577 25.4558C63.6577 27.234 64.9911 28.6281 66.7769 28.6281C68.2182 28.6281 69.052 27.739 69.3971 27.2221L68.3254 26.5008C67.9684 27.0296 67.4798 27.378 66.7769 27.378C66.0747 27.378 65.5743 27.0535 65.2528 26.4173L69.4563 24.6622L69.3136 24.3019ZM35.8247 23.257V24.6025H39.0156C38.9202 25.3596 38.6704 25.9123 38.2897 26.2964C37.8248 26.7656 37.0982 27.2825 35.8247 27.2825C33.8593 27.2825 32.3234 25.6841 32.3234 23.7015C32.3234 21.7182 33.8593 20.1205 35.8247 20.1205C36.8846 20.1205 37.6585 20.5412 38.2298 21.082L39.1708 20.1325C38.3725 19.3635 37.3133 18.7742 35.8247 18.7742C33.1335 18.7742 30.871 20.9858 30.871 23.7015C30.871 26.4173 33.1335 28.6281 35.8247 28.6281C37.2771 28.6281 38.3725 28.147 39.2299 27.2459C40.1117 26.3568 40.3852 25.1075 40.3852 24.0976C40.3852 23.785 40.3615 23.4971 40.3135 23.257H35.8247ZM44.0136 27.378C43.0609 27.378 42.2389 26.5851 42.2389 25.4558C42.2389 24.3139 43.0609 23.5329 44.0136 23.5329C44.9656 23.5329 45.7875 24.3139 45.7875 25.4558C45.7875 26.5851 44.9656 27.378 44.0136 27.378ZM44.0136 22.2836C42.2744 22.2836 40.8575 23.6172 40.8575 25.4558C40.8575 27.2825 42.2744 28.6281 44.0136 28.6281C45.7521 28.6281 47.169 27.2825 47.169 25.4558C47.169 23.6172 45.7521 22.2836 44.0136 22.2836ZM50.8972 27.378C49.9445 27.378 49.1225 26.5851 49.1225 25.4558C49.1225 24.3139 49.9445 23.5329 50.8972 23.5329C51.85 23.5329 52.6712 24.3139 52.6712 25.4558C52.6712 26.5851 51.85 27.378 50.8972 27.378ZM50.8972 22.2836C49.1588 22.2836 47.7418 23.6172 47.7418 25.4558C47.7418 27.2825 49.1588 28.6281 50.8972 28.6281C52.6357 28.6281 54.0526 27.2825 54.0526 25.4558C54.0526 23.6172 52.6357 22.2836 50.8972 22.2836Z" fill="black"/>
</svg>
