<svg width="74" height="34" viewBox="0 0 74 34" fill="none" xmlns="http://www.w3.org/2000/svg">
<path d="M6.1715 27.824C5.44824 27.824 4.69054 27.6969 3.89785 27.4416C3.1051 27.187 2.44455 26.7576 1.91637 26.1541C1.80481 26.0201 1.75999 25.8758 1.78084 25.7213C1.80143 25.5672 1.88839 25.4365 2.0414 25.3289C2.1803 25.2352 2.32993 25.2018 2.49001 25.2284C2.64946 25.2553 2.77818 25.3289 2.87591 25.4499C3.27901 25.906 3.76913 26.2243 4.34641 26.4054C4.92311 26.5865 5.55235 26.6772 6.23386 26.6772C7.40205 26.6772 8.22917 26.476 8.71617 26.0735C9.20285 25.671 9.44619 25.2018 9.44619 24.665C9.44619 24.1418 9.18532 23.709 8.66395 23.367C8.14253 23.0249 7.33938 22.7804 6.25476 22.6328C4.86414 22.4449 3.83518 22.0826 3.16777 21.5461C2.50047 21.0096 2.16647 20.386 2.16647 19.6746C2.16647 19.0042 2.34039 18.4372 2.68816 17.9744C3.03541 17.5114 3.5119 17.1629 4.1169 16.9282C4.72185 16.6934 5.41349 16.576 6.19241 16.576C7.1378 16.576 7.9373 16.7403 8.59114 17.0689C9.24435 17.3977 9.77279 17.8369 10.1762 18.3868C10.2875 18.521 10.3256 18.6654 10.2908 18.8195C10.2561 18.9739 10.1483 19.0982 9.96762 19.1918C9.82844 19.2591 9.68251 19.2792 9.52977 19.2522C9.37645 19.2253 9.24435 19.145 9.13342 19.0107C8.78559 18.5815 8.3647 18.256 7.87152 18.0346C7.37776 17.8135 6.80412 17.7026 6.15059 17.7026C5.27464 17.7026 4.59313 17.8838 4.10645 18.246C3.61945 18.6082 3.37642 19.0442 3.37642 19.554C3.37642 19.9029 3.47721 20.2079 3.67879 20.4696C3.88032 20.731 4.21062 20.9524 4.66964 21.1336C5.12839 21.3146 5.74015 21.459 6.50518 21.5663C7.54798 21.7003 8.37203 21.9282 8.97704 22.2504C9.58167 22.5723 10.0128 22.9446 10.2702 23.367C10.5271 23.7896 10.6559 24.2423 10.6559 24.7254C10.6559 25.3561 10.4475 25.906 10.0303 26.3752C9.61303 26.845 9.06368 27.2036 8.38249 27.4517C7.70098 27.7001 6.96388 27.824 6.1715 27.824Z" fill="black"/>
<path d="M14.2078 27.824C14.0366 27.824 13.8953 27.7659 13.7837 27.6493C13.6718 27.5329 13.616 27.3854 13.616 27.207V17.193C13.616 17.0009 13.6718 16.8505 13.7837 16.7405C13.8953 16.6308 14.0366 16.576 14.2078 16.576C14.3919 16.576 14.5366 16.6308 14.6421 16.7405C14.7471 16.8505 14.8 17.0009 14.8 17.193V27.207C14.8 27.3854 14.7471 27.5329 14.6421 27.6493C14.5366 27.7659 14.3919 27.824 14.2078 27.824Z" fill="black"/>
<path d="M59.1998 27.824C59.0286 27.824 58.8873 27.7659 58.7757 27.6493C58.6638 27.5329 58.608 27.3854 58.608 27.207V17.193C58.608 17.0009 58.6638 16.8505 58.7757 16.7405C58.8873 16.6308 59.0286 16.576 59.1998 16.576C59.3839 16.576 59.5286 16.6308 59.6341 16.7405C59.7391 16.8505 59.792 17.0009 59.792 17.193V27.207C59.792 27.3854 59.7391 27.5329 59.6341 27.6493C59.5286 27.7659 59.3839 27.824 59.1998 27.824Z" fill="black"/>
<path d="M62.752 17.1679C62.752 16.9966 62.8102 16.8554 62.9267 16.7437C63.0431 16.6318 63.1906 16.576 63.369 16.576L68.055 16.576C68.2471 16.576 68.3976 16.6319 68.5075 16.7437C68.6172 16.8554 68.672 16.9966 68.672 17.1679C68.672 17.3519 68.6172 17.4967 68.5075 17.6022C68.3976 17.7071 68.2471 17.76 68.055 17.76L63.369 17.76C63.1906 17.76 63.0431 17.7071 62.9267 17.6022C62.8102 17.4967 62.752 17.3519 62.752 17.1679Z" fill="#2E7FFD"/>
<path d="M65.1198 27.824C64.9485 27.824 64.8073 27.7659 64.6956 27.6493C64.5837 27.5329 64.5279 27.3854 64.5279 27.207V17.193C64.5279 17.0009 64.5837 16.8505 64.6956 16.7405C64.8073 16.6308 64.9485 16.576 65.1198 16.576C65.3038 16.576 65.4485 16.6308 65.554 16.7405C65.659 16.8505 65.7119 17.0009 65.7119 17.193V27.207C65.7119 27.3854 65.659 27.5329 65.554 27.6493C65.4485 27.7659 65.3038 27.824 65.1198 27.824Z" fill="#2E7FFD"/>
<path d="M72.2238 27.824C72.0525 27.824 71.9113 27.7659 71.7996 27.6493C71.6877 27.5329 71.6319 27.3854 71.6319 27.207V17.193C71.6319 17.0009 71.6877 16.8505 71.7996 16.7405C71.9113 16.6308 72.0525 16.576 72.2238 16.576C72.4078 16.576 72.5526 16.6308 72.6581 16.7405C72.763 16.8505 72.8159 17.0009 72.8159 17.193V27.207C72.8159 27.3854 72.763 27.5329 72.6581 27.6493C72.5526 27.7659 72.4078 27.824 72.2238 27.824Z" fill="#2E7FFD"/>
<path d="M33.7011 27.824C33.5174 27.824 33.3655 27.7666 33.2458 27.6514C33.1257 27.5365 33.0659 27.3909 33.0659 27.2148V21.3471C33.0659 20.3052 32.7802 19.4522 32.2086 18.7888C31.637 18.1258 30.8923 17.7941 29.9752 17.7941C29.0013 17.7941 28.2074 18.1022 27.5934 18.7179C26.9796 19.334 26.6865 20.1628 26.7149 21.2051H25.4447C25.4728 20.271 25.6845 19.459 26.0796 18.7685C26.4748 18.0782 27.0111 17.5401 27.6888 17.1544C28.3661 16.7689 29.1282 16.576 29.9752 16.576C30.8358 16.576 31.5909 16.779 32.2401 17.1849C32.8894 17.591 33.4011 18.153 33.775 18.8702C34.1489 19.5877 34.336 20.4131 34.336 21.3471V27.2148C34.336 27.3909 34.2795 27.5365 34.1666 27.6514C34.0535 27.7666 33.8985 27.824 33.7011 27.824ZM26.0796 27.824C25.8963 27.824 25.7444 27.7666 25.6247 27.6514C25.5047 27.5365 25.4447 27.3909 25.4447 27.2148V21.3471C25.4447 20.3052 25.1588 19.4522 24.5872 18.7888C24.0156 18.1258 23.2712 17.7941 22.3538 17.7941C21.3799 17.7941 20.5825 18.092 19.9616 18.6875C19.3404 19.2832 19.0302 20.0548 19.0302 21.002H17.9718C18.0138 20.1359 18.229 19.3711 18.6173 18.7078C19.0052 18.0447 19.5241 17.5234 20.1734 17.1445C20.8223 16.7655 21.5495 16.576 22.3538 16.576C23.2144 16.576 23.9697 16.779 24.619 17.1849C25.268 17.591 25.7797 18.153 26.1539 18.8702C26.5278 19.5877 26.7149 20.4131 26.7149 21.3471V27.2148C26.7149 27.3909 26.6584 27.5365 26.5456 27.6514C26.4324 27.7666 26.2774 27.824 26.0796 27.824ZM18.3949 27.824C18.2116 27.824 18.0597 27.7666 17.94 27.6514C17.8199 27.5365 17.76 27.3909 17.76 27.2148V17.3272C17.76 17.1376 17.8199 16.989 17.94 16.8804C18.0597 16.7721 18.2116 16.718 18.3949 16.718C18.5926 16.718 18.7476 16.7721 18.8608 16.8804C18.9737 16.989 19.0302 17.1376 19.0302 17.3272V27.2148C19.0302 27.3909 18.9737 27.5365 18.8608 27.6514C18.7476 27.7666 18.5926 27.824 18.3949 27.824Z" fill="black"/>
<path d="M43.1902 26.6997C44.0775 26.6997 44.8698 26.4985 45.5672 26.0966C46.2643 25.6951 46.8167 25.1499 47.2257 24.4616C47.634 23.7738 47.8381 23.1565 47.8381 22.2982C47.8381 21.4264 47.634 20.6464 47.2257 19.9582C46.8167 19.2704 46.2643 18.7252 45.5672 18.3233C44.8698 17.9217 44.0775 17.7203 43.1902 17.7203C42.317 17.7203 41.528 17.9217 40.8241 18.3233C40.1195 18.7252 39.5671 19.2704 39.1656 19.9582C38.7642 20.6464 38.5634 21.4264 38.5634 22.2982C38.5634 23.1565 38.7642 23.7738 39.1656 24.4616C39.5671 25.1499 40.1195 25.6951 40.8241 26.0966C41.528 26.4985 42.317 26.6997 43.1902 26.6997ZM37.9295 32.5037C37.7465 32.5037 37.5949 32.4453 37.4755 32.3298C37.3556 32.2139 37.2959 32.0676 37.2959 31.8906V22.1757C37.3239 21.0996 37.5949 20.1422 38.1091 19.3041C38.6232 18.4663 39.324 17.8022 40.2113 17.3118C41.0986 16.8211 42.0916 16.576 43.1902 16.576C44.3171 16.576 45.3273 16.8247 46.222 17.3217C47.1165 17.8193 47.8204 18.5006 48.3348 19.3655C48.8487 20.231 49.106 21.2085 49.106 22.2982C49.106 23.3748 48.8487 24.1892 48.3348 25.0544C47.8204 25.9197 47.1165 26.6009 46.222 27.0979C45.3273 27.5955 44.3171 27.8439 43.1902 27.8439C42.1763 27.8439 41.2641 27.6329 40.4544 27.2105C39.6442 26.7885 39.0141 26.2228 38.5634 25.5142V31.8906C38.5634 32.0676 38.5072 32.2139 38.3944 32.3298C38.2815 32.4453 38.1268 32.5037 37.9295 32.5037Z" fill="black"/>
<path d="M54.8423 27.8013C54.307 27.8013 53.8315 27.6583 53.4163 27.372C53.0008 27.086 52.6769 26.6911 52.4444 26.1868C52.2119 25.6829 52.0959 25.0971 52.0959 24.4293V12.4532C52.0959 12.2626 52.1556 12.1127 52.2754 12.0034C52.3949 11.8948 52.5464 11.8399 52.7298 11.8399C52.9268 11.8399 53.0814 11.8948 53.1944 12.0034C53.3071 12.1127 53.3634 12.2626 53.3634 12.4532V24.4293C53.3634 25.0561 53.501 25.5706 53.7755 25.9722C54.0502 26.3744 54.4056 26.5752 54.8423 26.5752H55.3708C55.5254 26.5752 55.6521 26.6297 55.7507 26.7386C55.8494 26.8479 55.8989 26.9975 55.8989 27.1881C55.8989 27.3654 55.8422 27.512 55.7299 27.6277C55.6169 27.7435 55.4619 27.8013 55.2649 27.8013H54.8423Z" fill="black"/>
<path d="M65.9444 33.0934C65.7848 33.0991 65.6252 33.1014 65.4655 33.1002C63.0263 33.0813 60.8148 32.416 58.8863 30.9281C58.533 30.6555 58.4684 30.1487 58.7421 29.7961C59.0154 29.4441 59.5248 29.3792 59.8781 29.6522C61.5278 30.9248 63.398 31.636 65.4845 31.6525C67.5678 31.6618 69.7647 30.8565 71.4347 29.6095C71.7923 29.3424 72.2998 29.4152 72.5682 29.7715C72.8362 30.1283 72.7634 30.6336 72.4054 30.9012C70.5815 32.2626 68.2194 33.0122 65.9444 33.0934Z" fill="black"/>
<path d="M59.0302 10.0752C58.8461 10.078 58.6604 10.022 58.505 9.90351C55.362 7.50829 46.773 1.99948 34.9605 2.58106C25.2565 3.05769 18.249 7.39062 14.9353 9.93138C14.6036 10.1857 14.0557 10.1486 13.7709 9.80235C13.4866 9.45599 13.547 8.95226 13.9057 8.67727C17.3748 6.01757 24.7126 1.48107 34.8778 0.981888C47.2681 0.377722 56.243 6.13903 59.5325 8.64609C59.8915 8.91983 59.9527 9.42304 59.669 9.77053C59.5081 9.96733 59.271 10.0717 59.0302 10.0752Z" fill="#2E7FFD"/>
<circle cx="14.2079" cy="13.024" r="1.184" fill="#2E7FFD"/>
<circle cx="59.1999" cy="13.024" r="1.184" fill="#2E7FFD"/>
<circle cx="72.224" cy="13.024" r="1.184" fill="#2E7FFD"/>
<path d="M64.5279 15.7188V17.76H65.7119V15.7188C65.7119 14.6961 65.8792 13.9876 66.281 13.5931C66.6827 13.1914 67.3949 12.9905 68.4176 12.9905C68.7901 12.9905 68.9764 12.7969 68.9764 12.4098C68.9764 12.0299 68.7901 11.84 68.4176 11.84C67.0735 11.84 66.0874 12.1505 65.4592 12.7713C64.8383 13.3922 64.5279 14.3747 64.5279 15.7188Z" fill="#2E7FFD"/>
</svg>
