<svg width="32" height="32" viewBox="0 0 32 32" fill="none" xmlns="http://www.w3.org/2000/svg">
<rect width="32" height="32" rx="16" fill="#3276B0"/>
<path d="M12.4418 12.3367C13.2273 12.3367 13.864 11.6999 13.864 10.9144C13.864 10.1289 13.2273 9.49219 12.4418 9.49219C11.6563 9.49219 11.0195 10.1289 11.0195 10.9144C11.0195 11.6999 11.6563 12.3367 12.4418 12.3367Z" fill="white"/>
<path d="M15.1665 13.3878H17.5236V14.4676C17.5236 14.4676 18.1633 13.1883 19.9036 13.1883C21.4561 13.1883 22.7421 13.9531 22.7421 16.2842V21.1999H20.2995V16.8798C20.2995 15.5047 19.5654 15.3535 19.0059 15.3535C17.8449 15.3535 17.6461 16.3549 17.6461 17.0592V21.1999H15.1665V13.3878Z" fill="white"/>
<path d="M11.202 13.3877H13.6816V21.1998H11.202V13.3877Z" fill="white"/>
</svg>
