<svg width="32" height="32" viewBox="0 0 32 32" fill="none" xmlns="http://www.w3.org/2000/svg">
<rect width="32" height="32" rx="16" fill="#6AABE8"/>
<g clip-path="url(#clip0_1737_8462)">
<path d="M21.7206 13.2151C21.7298 13.3386 21.7298 13.4622 21.7298 13.5857C21.7298 17.3533 18.7602 21.6945 13.3328 21.6945C11.6607 21.6945 10.1074 21.2268 8.80078 20.4151C9.03835 20.4416 9.26676 20.4504 9.51347 20.4504C10.8931 20.4504 12.1632 20.0004 13.1774 19.2328C11.88 19.2063 10.7927 18.3857 10.418 17.2563C10.6008 17.2827 10.7835 17.3004 10.9754 17.3004C11.2404 17.3004 11.5054 17.2651 11.7521 17.2033C10.3998 16.9386 9.38553 15.7916 9.38553 14.4063V14.371C9.77841 14.5828 10.2353 14.7151 10.7195 14.7327C9.9246 14.221 9.40381 13.3474 9.40381 12.3592C9.40381 11.8298 9.54998 11.3445 9.80583 10.921C11.2586 12.6504 13.4424 13.7798 15.8911 13.9033C15.8454 13.6916 15.818 13.471 15.818 13.2504C15.818 11.6798 17.1338 10.4004 18.7693 10.4004C19.6191 10.4004 20.3866 10.7445 20.9257 11.3004C21.5926 11.1769 22.2322 10.9386 22.7988 10.6122C22.5794 11.2739 22.1135 11.8298 21.5013 12.1827C22.0952 12.121 22.6708 11.9621 23.2008 11.7416C22.7988 12.3063 22.2963 12.8092 21.7206 13.2151Z" fill="white"/>
</g>
<defs>
<clipPath id="clip0_1737_8462">
<rect width="14.4" height="12" fill="white" transform="translate(8.80078 10.4004)"/>
</clipPath>
</defs>
</svg>
